<svg version="1.1" xmlns="http://www.w3.org/2000/svg" xmlns:xlink="http://www.w3.org/1999/xlink" x="0px" y="0px" viewBox="0.001 0 350 317.123" enable-background="new 0.001 0 350 317.123" xml:space="preserve" style="position: absolute;">
<g>
	<path fill="#717273" d="M170.409,301.335L22.917,153.801c-36.514-36.458-23.958-75.016,0-98.924l33.011-33.024
		c17.069-17.115,59.763-39.144,98.901,0L334.38,201.371c25.093,25.086,15.948,52.035,0.492,67.478l-32.512,32.486
		c-21.505,21.53-43.875,21.052-66.436-1.509L89.929,153.801c-5.746-5.744-8.652-11.789-8.652-17.985
		c0.046-8.456,5.576-13.91,8.2-16.545l31.935-31.915c9.552-9.531,23.177-9.738,32.414-0.512l114.533,114.527l-16.394,16.394
		L137.431,103.238l-31.107,31.968c-0.374,0.396-0.716,0.744-1.05,1.043c0.275,0.348,0.604,0.725,1.05,1.161l145.989,146.016
		c16.354,16.321,24.266,10.903,33.653,1.521l32.519-32.499c11.33-11.336,11.186-22.999-0.498-34.684L138.429,38.25
		c-32.1-32.148-62.762-3.392-66.12,0L39.298,71.267c-12.372,12.363-28.806,37.357,0,66.144l147.538,147.537L170.409,301.335z" class="color color-1" data-color="#717273"></path>
</g>
</svg>