<svg version="1.1" xmlns="http://www.w3.org/2000/svg" xmlns:xlink="http://www.w3.org/1999/xlink" x="0px" y="0px" viewBox="0 0 224.2 250" enable-background="new 0 0 224.2 250" xml:space="preserve" style="position: absolute;">
<g>
	<path fill="#ffffff" d="M0,0l9.1,104.2l2.9,33.4L21.9,250h180.3l9.3-106l2.7-30.3L224.2,0H0z M177.3,222.8H46.8l-6.3-71.7
		c6.9,1.8,14.8,2.9,24.4,2.9c27.7,0,42-9.5,54.6-17.8c11.3-7.4,20.2-13.3,39.7-13.3c11.6,0,19.5,2.1,26.3,5.3L177.3,222.8z
		 M188.1,100.2c-7.8-2.6-17.1-4.3-28.8-4.3c-27.7,0-42,9.4-54.7,17.8c-11.3,7.4-20.2,13.3-39.7,13.3c-12,0-20-2.2-27-5.6l-8.3-94.1
		h164.9L188.1,100.2z" class="color color-1" data-color="#27AAE1"></path>
	<circle fill="#ffffff" cx="163.9" cy="145.7" r="7.2" class="color color-1" data-color="#27AAE1"></circle>
	<circle fill="#ffffff" cx="125.1" cy="157.4" r="7.2" class="color color-1" data-color="#27AAE1"></circle>
	<circle fill="#ffffff" cx="154.3" cy="181.8" r="7.2" class="color color-1" data-color="#27AAE1"></circle>
</g>
</svg>