<svg version="1.1" xmlns="http://www.w3.org/2000/svg" xmlns:xlink="http://www.w3.org/1999/xlink" x="0px" y="0px" viewBox="0 0 200 212.8" enable-background="new 0 0 200 212.8" xml:space="preserve" style="position: absolute;">
<g>
	<path fill="#ffffff" d="M199,94.2c-2.3-12.3-7.6-23.1-15.9-32.1c-12.2-13.3-27.6-20.5-45.5-21.5c-8.7-0.5-17.7,0.3-27.4,2.4
		c1.5-10.3,7-18,16.8-23.3l3.6-2L121.8,0l-3.9,2c-8.3,4.3-14.9,10.2-19.8,17.7C90.9,11.4,81.8,5.8,70.9,2.9
		c-7-1.9-14.3-2.3-21.7-1.2c-4.6,0.7-8.8,2-12.6,3.4c-1,0.4-2.1,0.8-3.1,1.1l-6.2,2.2l2.5,4.5c7,12.3,15.8,20.8,27,25.9
		c1.6,0.7,3.1,1.4,4.7,1.9c-4.2,0.3-8.1,0.9-11.8,1.8c-14,3.6-25.7,11-34.8,22C5.6,75.7,0.6,88.7,0.1,103.1
		C-0.3,114.2,1,125.9,4,137.7c5.3,20.7,15.2,39.2,29.3,54.8c3.4,3.8,6.6,6.8,9.7,9.5c6.3,5.3,13.9,8.7,22.6,10.1
		c2.9,0.5,5.8,0.7,8.6,0.7c3.3,0,6.5-0.3,9.6-1c3.6-0.8,7.2-1.7,10.7-2.6c1.8-0.5,3.7-0.9,5.5-1.4l1.5,0.4c3.2,0.8,6.6,1.6,9.8,2.5
		c8,2.2,15.4,2.7,22.6,1.5c10.1-1.7,18.7-5.9,25.8-12.6c12.8-12.2,22.8-26.5,29.8-42.6c4-9.3,7-19.2,8.7-29.3c1-5.9,1.6-12,1.8-18.8
		C200.1,103.5,199.8,98.8,199,94.2z M52.4,17c6-0.7,11.6,0,17.2,1.8c5.5,1.8,10.4,4.8,14.6,8.9C72.1,28.8,61.5,25.4,52.4,17z
		 M180.4,108.6c-0.2,6.6-0.9,12.6-2.1,18.4c-2.7,13.7-8,26.7-15.7,38.4c-4.8,7.3-10.2,13.9-16.2,19.5c-5,4.7-10.8,7.2-17.9,7.9
		c-4.6,0.4-9.1-0.6-13.3-1.7c-3.5-0.9-7.1-1.8-10.5-2.7l-2.7-0.7c-1-0.3-2.2-0.3-3.2,0c-2,0.5-3.9,1-5.9,1.5c-3.8,1-7.7,2-11.5,2.8
		c-11.2,2.4-20.5-0.2-28.3-7.9c-15.3-14.9-25.5-33.1-30.5-54.3c-2.1-9-3-17.1-2.7-24.6c0.7-18.6,9.2-31.8,26.2-40.3
		c5.6-2.8,12.3-4.4,18.9-4.4h0.4c9.8,0.2,18.5,1.4,27.4,3.7c2,0.5,3.9,1,5.9,1.5c1,0.2,2,0.2,3.1,0c1.8-0.4,3.6-0.9,5.4-1.3
		c3.6-0.9,7.3-1.8,10.9-2.4c7.2-1.3,14.1-1.7,20.6-1.2c19.8,1.6,36.6,16.5,40.7,36C180.3,100.3,180.6,104.1,180.4,108.6z" class="color color-1" data-color="#EF4136"></path>
</g>
</svg>