<svg version="1.1" xmlns="http://www.w3.org/2000/svg" xmlns:xlink="http://www.w3.org/1999/xlink" x="0px" y="0px" viewBox="0 -1.245 1135.5044394419228 21.833000000000016" enable-background="new 0 -1.245 757.561 21.833" xml:space="preserve" class="horizontalOnly" style="position: absolute;">
<defs><g id="CANVA8_"><g class="repeat">
	<g>
		<path fill="#ffffff" d="M219.281,9.584c0-5.47-4.449-9.921-9.921-9.921c-5.469,0-9.921,4.451-9.921,9.921
			c0,5.471,4.451,9.922,9.921,9.922C214.831,19.506,219.281,15.055,219.281,9.584z" class="color color-1" data-color="#F26722"></path>
		<path fill="#ffffff" d="M259.161,9.584c0-5.47-4.451-9.921-9.924-9.921c-5.494,0-9.916,4.451-9.916,9.921
			c0,5.471,4.422,9.922,9.916,9.922C254.709,19.506,259.161,15.055,259.161,9.584z" class="color color-1" data-color="#F26722"></path>
		<path fill="#ffffff" d="M179.402,9.584c0-5.47-4.448-9.921-9.916-9.921c-5.47,0-9.921,4.451-9.921,9.921
			c0,5.471,4.451,9.922,9.921,9.922C174.952,19.506,179.402,15.055,179.402,9.584z" class="color color-1" data-color="#F26722"></path>
		<path fill="#ffffff" d="M338.89,9.584c0-5.47-4.457-9.921-9.921-9.921c-5.478,0-9.921,4.451-9.921,9.921
			c0,5.471,4.443,9.922,9.921,9.922C334.434,19.506,338.89,15.055,338.89,9.584z" class="color color-1" data-color="#F26722"></path>
		<path fill="#ffffff" d="M10.005-0.337c-2.61,0-5.17,1.06-7.01,2.91c-1.853,1.84-2.91,4.4-2.91,7.01c0,2.609,1.06,5.169,2.91,7.01
			c1.84,1.851,4.397,2.909,7.01,2.909c2.607,0,5.17-1.062,7.01-2.909c1.85-1.841,2.91-4.399,2.91-7.01c0-2.61-1.062-5.17-2.91-7.01
			C15.176,0.724,12.616-0.337,10.005-0.337z" class="color color-1" data-color="#F26722"></path>
		<path fill="#ffffff" d="M378.764,9.584c0-5.47-4.446-9.921-9.921-9.921c-5.464,0-9.916,4.451-9.916,9.921
			c0,5.471,4.452,9.922,9.916,9.922C374.318,19.506,378.764,15.055,378.764,9.584z" class="color color-1" data-color="#F26722"></path>
		<path fill="#ffffff" d="M59.8,9.584c0-5.47-4.452-9.921-9.921-9.921c-5.497,0-9.921,4.451-9.921,9.921
			c0,5.471,4.424,9.922,9.921,9.922C55.347,19.506,59.8,15.055,59.8,9.584z" class="color color-1" data-color="#F26722"></path>
		<path fill="#ffffff" d="M99.677,9.584c0-5.47-4.451-9.921-9.921-9.921c-5.497,0-9.921,4.451-9.921,9.921
			c0,5.471,4.424,9.922,9.921,9.922C95.226,19.506,99.677,15.055,99.677,9.584z" class="color color-1" data-color="#F26722"></path>
		<path fill="#ffffff" d="M139.523,9.584c0-5.47-4.418-9.921-9.921-9.921c-5.464,0-9.916,4.451-9.916,9.921
			c0,5.471,4.452,9.922,9.916,9.922C135.105,19.506,139.523,15.055,139.523,9.584z" class="color color-1" data-color="#F26722"></path>
		<path fill="#ffffff" d="M299.007,9.584c0-5.47-4.419-9.921-9.916-9.921c-5.47,0-9.896,4.451-9.896,9.921
			c0,5.471,4.427,9.922,9.896,9.922C294.588,19.506,299.007,15.055,299.007,9.584z" class="color color-1" data-color="#F26722"></path>
		<path fill="#ffffff" d="M618.004,9.584c0-5.47-4.451-9.921-9.92-9.921c-5.498,0-9.924,4.451-9.924,9.921
			c0,5.471,4.426,9.922,9.924,9.922C613.553,19.506,618.004,15.055,618.004,9.584z" class="color color-1" data-color="#F26722"></path>
		<path fill="#ffffff" d="M657.883,9.584c0-5.47-4.451-9.921-9.922-9.921c-5.502,0-9.916,4.451-9.916,9.921
			c0,5.471,4.414,9.922,9.916,9.922C653.432,19.506,657.883,15.055,657.883,9.584z" class="color color-1" data-color="#F26722"></path>
		<path fill="#ffffff" d="M697.723,9.584c0-5.47-4.412-9.921-9.914-9.921c-5.471,0-9.922,4.451-9.922,9.921
			c0,5.471,4.451,9.922,9.922,9.922C693.311,19.506,697.723,15.055,697.723,9.584z" class="color color-1" data-color="#F26722"></path>
		<path fill="#ffffff" d="M737.608,9.584c0-5.47-4.418-9.921-9.92-9.921c-5.471,0-9.922,4.451-9.922,9.921
			c0,5.471,4.451,9.922,9.922,9.922C733.19,19.506,737.608,15.055,737.608,9.584z" class="color color-1" data-color="#F26722"></path>
		<path fill="#ffffff" d="M578.125,9.584c0-5.47-4.426-9.921-9.924-9.921c-5.469,0-9.916,4.451-9.916,9.921
			c0,5.471,4.447,9.922,9.916,9.922C573.699,19.506,578.125,15.055,578.125,9.584z" class="color color-1" data-color="#F26722"></path>
		<path fill="#ffffff" d="M458.522,9.584c0-5.47-4.451-9.921-9.922-9.921c-5.502,0-9.916,4.451-9.916,9.921
			c0,5.471,4.414,9.922,9.916,9.922C454.071,19.506,458.522,15.055,458.522,9.584z" class="color color-1" data-color="#F26722"></path>
		<path fill="#ffffff" d="M498.365,9.584c0-5.47-4.418-9.921-9.92-9.921c-5.471,0-9.916,4.451-9.916,9.921
			c0,5.471,4.445,9.922,9.916,9.922C493.948,19.506,498.365,15.055,498.365,9.584z" class="color color-1" data-color="#F26722"></path>
		<path fill="#ffffff" d="M418.649,9.584c0-5.47-4.457-9.921-9.922-9.921c-5.469,0-9.92,4.451-9.92,9.921
			c0,5.471,4.451,9.922,9.92,9.922C414.192,19.506,418.649,15.055,418.649,9.584z" class="color color-1" data-color="#F26722"></path>
		<path fill="#ffffff" d="M538.244,9.584c0-5.47-4.449-9.921-9.92-9.921c-5.465,0-9.922,4.451-9.922,9.921
			c0,5.471,4.457,9.922,9.922,9.922C533.795,19.506,538.244,15.055,538.244,9.584z" class="color color-1" data-color="#F26722"></path>
	</g>
</g></g><clipPath id="CANVA7_"><rect width="1135.4185019419228" height="21.833" x="0.0859375" y="0"></rect></clipPath></defs><g id="n" class="canva tiled" clip-path="url(#CANVA7_)" transform="translate(0, 1)">
	
<rect width="757.4750625" height="21.833" class="canva dimensions" display="none" pointer-events="none"></rect><rect width="1135.4185019419228" height="21.833" x="0.0859375" y="0" class="repeat" visibility="hidden" pointer-events="none"></rect><use xlink:href="#CANVA8_" transform="translate(0,0)"></use><use xlink:href="#CANVA8_" transform="translate(756.9750625,0)"></use></g>
<g id="ne" transform="translate(376.9434394419228, 1) scale(1, 1)">
</g>
<g id="nw" transform="translate(1, 1) scale(1, 1)">
</g>
</svg>