<svg version="1.1" xmlns="http://www.w3.org/2000/svg" xmlns:xlink="http://www.w3.org/1999/xlink" x="0px" y="0px" viewBox="0 0 250 302.6" enable-background="new 0 0 250 302.6" xml:space="preserve" style="position: absolute;">
<g>
	<path fill="#ffffff" d="M36.6,75.8l6,6c-5,4.1-9.7,8.7-14.1,13.7c-0.3,0.4-0.7,0.7-0.9,1.1l-5.9-5.9l-6.8,6.8L0,82.6l28.5-28.5
		L43.4,69L36.6,75.8z" class="color color-1" data-color="#282324"></path>
	<path fill="#ffffff" d="M250,82.6l-14.9,14.9l-6.8-6.8l-7,7l-1.2-1.2v0c-0.1-0.1-0.1-0.2-0.2-0.2c-4-4.6-8.3-8.9-12.9-12.9
		l-0.6-0.6l7-7l-6.8-6.8l14.9-14.9L250,82.6z" class="color color-1" data-color="#282324"></path>
	<path d="M123.9,56.3c6.3,0,12.5,0.5,18.5,1.4v14h-35V57.4C112.8,56.7,118.3,56.3,123.9,56.3z"></path>
	<path fill="#ffffff" d="M158.4,0v35h-16v16.8c-6.1-0.9-12.3-1.3-18.5-1.3c-5.6,0-11.1,0.4-16.5,1.1V35h-16V0H158.4z" class="color color-1" data-color="#282324"></path>
	<g id="">
		<path d="M166.3,184.8l-6.9,6.9l-33.8,33.8c-0.2,0.2-0.5,0.5-0.8,0.7c-0.2-0.2-0.5-0.5-0.8-0.7l-40.6-40.6
			c-9.3-9.3-9.3-24.4,0-33.7l0.8-0.8c0.4-0.4,0.8-0.7,1.1-1.1c0,0,0.1-0.1,0.1-0.1c0.4-0.3,0.8-0.7,1.1-0.9c0.2-0.1,0.4-0.3,0.5-0.4
			c0.7-0.5,1.4-0.9,2.1-1.3c0.4-0.3,0.9-0.5,1.3-0.7c0.4-0.2,0.8-0.4,1.2-0.6c0.4-0.2,0.8-0.4,1.3-0.5c0.3-0.1,0.5-0.2,0.8-0.3
			c0,0,0.1,0,0.1,0c0.5-0.2,1-0.3,1.5-0.4c0.1,0,0.1,0,0.2,0c0.6-0.1,1.1-0.3,1.7-0.4c0.2,0,0.3,0,0.4-0.1c0.3-0.1,0.7-0.1,1-0.1
			c0.8-0.1,1.5-0.1,2.3-0.1c0.8,0,1.5,0,2.3,0.1c0.4,0,0.7,0.1,1.1,0.1c0.4,0.1,0.7,0.1,1,0.2c0.2,0,0.4,0.1,0.6,0.1
			c1,0.2,2,0.5,2.9,0.8c0.6,0.2,1.2,0.5,1.8,0.7c0.5,0.2,0.9,0.5,1.4,0.7c2.1,1.1,4,2.5,5.8,4.3l6.9,6.9l6.8-6.9
			c0.6-0.6,1.2-1.1,1.8-1.6c0.4-0.3,0.8-0.6,1.1-0.9c0.6-0.4,1.2-0.8,1.8-1.1c0.2-0.1,0.3-0.2,0.5-0.3c0.4-0.2,0.8-0.5,1.2-0.7
			c0.4-0.2,0.8-0.4,1.2-0.5c0.3-0.1,0.7-0.3,1-0.4c0.3-0.1,0.7-0.3,1-0.4c0.3-0.1,0.6-0.2,0.9-0.3c0.4-0.1,0.9-0.2,1.3-0.3
			c0.2,0,0.4-0.1,0.7-0.1c0.2,0,0.4-0.1,0.7-0.1c0.1,0,0.3,0,0.4-0.1c0.3-0.1,0.7-0.1,1-0.1c0.8-0.1,1.5-0.1,2.3-0.1s1.5,0,2.3,0.1
			c0.3,0,0.7,0.1,1,0.1c0.2,0,0.3,0,0.4,0.1c0.2,0,0.4,0.1,0.7,0.1c0.2,0,0.4,0.1,0.7,0.1c0.5,0.1,0.9,0.2,1.3,0.3
			c0.3,0.1,0.6,0.2,0.9,0.3c0.4,0.1,0.7,0.2,1,0.4c0.3,0.1,0.7,0.3,1,0.4c0.4,0.2,0.8,0.3,1.2,0.5c0.4,0.2,0.8,0.4,1.2,0.7
			c0.2,0.1,0.3,0.2,0.5,0.3c0.6,0.3,1.2,0.7,1.8,1.1c0.4,0.3,0.8,0.6,1.1,0.9c0.6,0.5,1.2,1,1.8,1.6l0.8,0.8
			C175.6,160.4,175.6,175.5,166.3,184.8z"></path>
	</g>
	<g id="">
		<path fill="#ffffff" d="M142.4,57.7c-6-0.9-12.2-1.4-18.5-1.4c-5.6,0-11.1,0.4-16.5,1.1C47.2,65.5,0.8,117.1,0.8,179.5
			c0,68,55.1,123.2,123.2,123.2s123.2-55.1,123.2-123.2C247.1,117.8,201.6,66.6,142.4,57.7z M123.9,271c-50.6,0-91.5-41-91.5-91.5
			c0-50.6,41-91.5,91.5-91.5c50.6,0,91.5,41,91.5,91.5C215.4,230,174.5,271,123.9,271z" class="color color-1" data-color="#282324"></path>
	</g>
	<path fill="#ffffff" d="M166.3,184.8l-6.9,6.9l-33.8,33.8c-0.2,0.2-0.5,0.5-0.8,0.7c-0.2-0.2-0.5-0.5-0.8-0.7l-40.6-40.6
		c-9.3-9.3-9.3-24.4,0-33.7l0.8-0.8c0.4-0.4,0.8-0.7,1.1-1.1c0,0,0.1-0.1,0.1-0.1c0.4-0.3,0.8-0.7,1.1-0.9c0.2-0.1,0.4-0.3,0.5-0.4
		c0.7-0.5,1.4-0.9,2.1-1.3c0.4-0.3,0.9-0.5,1.3-0.7c0.4-0.2,0.8-0.4,1.2-0.6c0.4-0.2,0.8-0.4,1.3-0.5c0.3-0.1,0.5-0.2,0.8-0.3
		c0,0,0.1,0,0.1,0c0.5-0.2,1-0.3,1.5-0.4c0.1,0,0.1,0,0.2,0c0.6-0.1,1.1-0.3,1.7-0.4c0.2,0,0.3,0,0.4-0.1c0.3-0.1,0.7-0.1,1-0.1
		c0.8-0.1,1.5-0.1,2.3-0.1c0.8,0,1.5,0,2.3,0.1c0.4,0,0.7,0.1,1.1,0.1c0.4,0.1,0.7,0.1,1,0.2c0.2,0,0.4,0.1,0.6,0.1
		c1,0.2,2,0.5,2.9,0.8c0.6,0.2,1.2,0.5,1.8,0.7c0.5,0.2,0.9,0.5,1.4,0.7c2.1,1.1,4,2.5,5.8,4.3l6.9,6.9l6.8-6.9
		c0.6-0.6,1.2-1.1,1.8-1.6c0.4-0.3,0.8-0.6,1.1-0.9c0.6-0.4,1.2-0.8,1.8-1.1c0.2-0.1,0.3-0.2,0.5-0.3c0.4-0.2,0.8-0.5,1.2-0.7
		c0.4-0.2,0.8-0.4,1.2-0.5c0.3-0.1,0.7-0.3,1-0.4c0.3-0.1,0.7-0.3,1-0.4c0.3-0.1,0.6-0.2,0.9-0.3c0.4-0.1,0.9-0.2,1.3-0.3
		c0.2,0,0.4-0.1,0.7-0.1c0.2,0,0.4-0.1,0.7-0.1c0.1,0,0.3,0,0.4-0.1c0.3-0.1,0.7-0.1,1-0.1c0.8-0.1,1.5-0.1,2.3-0.1s1.5,0,2.3,0.1
		c0.3,0,0.7,0.1,1,0.1c0.2,0,0.3,0,0.4,0.1c0.2,0,0.4,0.1,0.7,0.1c0.2,0,0.4,0.1,0.7,0.1c0.5,0.1,0.9,0.2,1.3,0.3
		c0.3,0.1,0.6,0.2,0.9,0.3c0.4,0.1,0.7,0.2,1,0.4c0.3,0.1,0.7,0.3,1,0.4c0.4,0.2,0.8,0.3,1.2,0.5c0.4,0.2,0.8,0.4,1.2,0.7
		c0.2,0.1,0.3,0.2,0.5,0.3c0.6,0.3,1.2,0.7,1.8,1.1c0.4,0.3,0.8,0.6,1.1,0.9c0.6,0.5,1.2,1,1.8,1.6l0.8,0.8
		C175.6,160.4,175.6,175.5,166.3,184.8z" class="color color-1 primaryColor" data-color="#FFFFFF"></path>
	<path fill="#ffffff" d="M166.3,184.8l-6.9,6.9l-33.8,33.8c-0.2,0.2-0.5,0.5-0.8,0.7c-0.2-0.2-0.5-0.5-0.8-0.7l-40.6-40.6
		c-9.3-9.3-9.3-24.4,0-33.7l0.8-0.8c0.4-0.4,0.8-0.7,1.1-1.1c0,0,0.1-0.1,0.1-0.1c0.4-0.3,0.8-0.7,1.1-0.9c0.2-0.1,0.4-0.3,0.5-0.4
		c0.7-0.5,1.4-0.9,2.1-1.3c0.4-0.3,0.9-0.5,1.3-0.7c0.4-0.2,0.8-0.4,1.2-0.6c0.4-0.2,0.8-0.4,1.3-0.5c0.3-0.1,0.5-0.2,0.8-0.3
		c0,0,0.1,0,0.1,0c0.5-0.2,1-0.3,1.5-0.4c0.1,0,0.1,0,0.2,0c0.6-0.1,1.1-0.3,1.7-0.4c0.2,0,0.3,0,0.4-0.1c0.3-0.1,0.7-0.1,1-0.1
		c0.8-0.1,1.5-0.1,2.3-0.1c0.8,0,1.5,0,2.3,0.1c0.4,0,0.7,0.1,1.1,0.1c0.4,0.1,0.7,0.1,1,0.2c0.2,0,0.4,0.1,0.6,0.1
		c1,0.2,2,0.5,2.9,0.8c0.6,0.2,1.2,0.5,1.8,0.7c0.5,0.2,0.9,0.5,1.4,0.7c2.1,1.1,4,2.5,5.8,4.3l6.9,6.9l6.8-6.9
		c0.6-0.6,1.2-1.1,1.8-1.6c0.4-0.3,0.8-0.6,1.1-0.9c0.6-0.4,1.2-0.8,1.8-1.1c0.2-0.1,0.3-0.2,0.5-0.3c0.4-0.2,0.8-0.5,1.2-0.7
		c0.4-0.2,0.8-0.4,1.2-0.5c0.3-0.1,0.7-0.3,1-0.4c0.3-0.1,0.7-0.3,1-0.4c0.3-0.1,0.6-0.2,0.9-0.3c0.4-0.1,0.9-0.2,1.3-0.3
		c0.2,0,0.4-0.1,0.7-0.1c0.2,0,0.4-0.1,0.7-0.1c0.1,0,0.3,0,0.4-0.1c0.3-0.1,0.7-0.1,1-0.1c0.8-0.1,1.5-0.1,2.3-0.1s1.5,0,2.3,0.1
		c0.3,0,0.7,0.1,1,0.1c0.2,0,0.3,0,0.4,0.1c0.2,0,0.4,0.1,0.7,0.1c0.2,0,0.4,0.1,0.7,0.1c0.5,0.1,0.9,0.2,1.3,0.3
		c0.3,0.1,0.6,0.2,0.9,0.3c0.4,0.1,0.7,0.2,1,0.4c0.3,0.1,0.7,0.3,1,0.4c0.4,0.2,0.8,0.3,1.2,0.5c0.4,0.2,0.8,0.4,1.2,0.7
		c0.2,0.1,0.3,0.2,0.5,0.3c0.6,0.3,1.2,0.7,1.8,1.1c0.4,0.3,0.8,0.6,1.1,0.9c0.6,0.5,1.2,1,1.8,1.6l0.8,0.8
		C175.6,160.4,175.6,175.5,166.3,184.8z" class="color color-1" data-color="#282324"></path>
</g>
</svg>